<svg width="20" height="8" viewBox="0 0 20 8" fill="none" xmlns="http://www.w3.org/2000/svg">
<g clip-path="url(#clip0_555_20284)">
<path d="M19.585 4.06744H0.411578C0.356205 4.06943 0.301004 4.06015 0.249265 4.04014C0.197526 4.02013 0.150314 3.98982 0.110442 3.951C0.070571 3.91218 0.0388545 3.86566 0.0171955 3.8142C-0.00446355 3.76274 -0.015625 3.70741 -0.015625 3.65151C-0.015625 3.59561 -0.00446355 3.54027 0.0171955 3.48882C0.0388545 3.43736 0.070571 3.39084 0.110442 3.35202C0.150314 3.3132 0.197526 3.28288 0.249265 3.26288C0.301004 3.24287 0.356205 3.23359 0.411578 3.23558H18.5904L16.0881 0.710418C16.0498 0.67175 16.0194 0.625856 15.9987 0.575347C15.978 0.524838 15.9673 0.470706 15.9674 0.416046C15.9674 0.361386 15.9781 0.307268 15.9988 0.256778C16.0196 0.206288 16.05 0.160417 16.0883 0.121784C16.1267 0.0831503 16.1721 0.0525062 16.2222 0.0316113C16.2723 0.0107164 16.3259 -2.44804e-05 16.3801 4.18953e-08C16.4343 2.45642e-05 16.4879 0.0108193 16.538 0.0317596C16.588 0.0526998 16.6335 0.08338 16.6718 0.122048L19.8792 3.35759C19.937 3.41578 19.9763 3.48999 19.9922 3.57079C20.0081 3.6516 19.9999 3.73534 19.9685 3.8114C19.9372 3.88746 19.8841 3.95241 19.8161 3.998C19.7481 4.04359 19.6682 4.06775 19.5866 4.06744H19.585Z" fill="#D6D6D6"/>
<path d="M16.3749 7.30702C16.3208 7.3073 16.2672 7.29665 16.2172 7.2757C16.1672 7.25474 16.1219 7.22391 16.0839 7.18501C16.0455 7.14636 16.0151 7.10046 15.9943 7.04994C15.9736 6.99941 15.9629 6.94525 15.9629 6.89056C15.9629 6.83586 15.9736 6.78171 15.9943 6.73119C16.0151 6.68066 16.0455 6.63476 16.0839 6.59611L19.295 3.35635C19.3724 3.27825 19.4773 3.23437 19.5868 3.23438C19.6963 3.23438 19.8013 3.27825 19.8787 3.35635C19.9561 3.43444 19.9995 3.54035 19.9995 3.65079C19.9995 3.76124 19.9561 3.86715 19.8787 3.94524L16.6676 7.18501C16.6292 7.22379 16.5835 7.25453 16.5333 7.27547C16.4831 7.29641 16.4293 7.30713 16.3749 7.30702Z" fill="#D6D6D6"/>
</g>
<defs>
<clipPath id="clip0_555_20284">
<rect width="20" height="7.30769" fill="white"/>
</clipPath>
</defs>
</svg>
