<svg width="140" height="34" viewBox="0 0 140 34" fill="none" xmlns="http://www.w3.org/2000/svg">
<g clip-path="url(#clip0_555_89443)">
<path d="M29.5746 28.2051C26.7421 31.3808 22.8183 33.3743 18.5832 33.7894C14.3482 34.2045 10.112 33.0108 6.71678 30.4455C6.09665 29.9727 5.50911 29.4586 4.95814 28.9067C4.40531 28.3563 3.89262 27.7671 3.42392 27.1435C0.96026 23.8832 -0.241402 19.842 0.0405674 15.7653C0.322537 11.6886 2.06909 7.85127 4.95814 4.96118C6.60317 3.31604 8.56953 2.02745 10.7345 1.17575C12.8995 0.324059 15.2168 -0.0724813 17.5418 0.0108754C19.8668 0.0942321 22.1497 0.65569 24.2482 1.66024C26.3466 2.66479 28.2156 4.09089 29.7386 5.84962C35.2833 12.2281 35.2082 21.9052 29.5746 28.2051Z" fill="#FF8700"/>
<path d="M29.4459 15.1054L17.9691 26.5833C17.0661 27.486 15.9067 28.0882 14.6489 28.3077L9.88555 29.1324C8.74428 29.3273 7.66134 29.7761 6.71676 30.4457C6.09664 29.9728 5.5091 29.4587 4.95813 28.9069C4.4053 28.3565 3.89261 27.7672 3.4239 27.1437C4.09298 26.2023 4.54146 25.1224 4.73605 23.984L5.56067 19.2207C5.77867 17.9617 6.37966 16.8007 7.28171 15.8959L18.6981 4.48065C19.2368 3.94075 20.1617 3.89974 20.6766 4.46128C20.9001 4.70452 21.0223 5.02395 21.0183 5.35428C21.0174 5.70606 20.8779 6.04331 20.6299 6.29283L9.23289 17.6898C8.98409 17.939 8.84436 18.2768 8.84436 18.6289C8.84436 18.9811 8.98409 19.3188 9.23289 19.5681L9.76708 20.1023C10.0163 20.3511 10.3541 20.4908 10.7062 20.4908C11.0584 20.4908 11.3961 20.3511 11.6453 20.1023L23.0412 8.70526C23.2898 8.45667 23.627 8.31702 23.9786 8.31702C24.3302 8.31702 24.6674 8.45667 24.916 8.70526L25.1643 8.95357C25.4125 9.20216 25.552 9.5391 25.552 9.89041C25.552 10.2417 25.4125 10.5787 25.1643 10.8272L13.7707 22.2197C13.5227 22.4686 13.3834 22.8057 13.3834 23.1571C13.3834 23.5085 13.5227 23.8456 13.7707 24.0945L14.3095 24.6321C14.4327 24.7554 14.579 24.8532 14.7401 24.92C14.9011 24.9867 15.0737 25.021 15.248 25.021C15.4224 25.021 15.5949 24.9867 15.756 24.92C15.917 24.8532 16.0633 24.7554 16.1866 24.6321L27.5836 13.242C27.8322 12.9937 28.1691 12.8543 28.5204 12.8543C28.8717 12.8543 29.2087 12.9937 29.4573 13.242C29.5812 13.365 29.6795 13.5114 29.7464 13.6727C29.8132 13.834 29.8474 14.007 29.8468 14.1817C29.8395 14.5302 29.6955 14.862 29.4459 15.1054Z" fill="#FCF8F5"/>
<path d="M43.777 31.1479V3.68164H56.0476C57.785 3.68164 59.3542 4.05447 60.7552 4.80015C62.103 5.49789 63.2511 6.52723 64.0914 7.79121C64.9076 9.02015 65.3373 10.4654 65.3249 11.9407C65.3375 13.1283 65.0673 14.3019 64.5367 15.3645C64.0064 16.4099 63.2584 17.3296 62.343 18.0617C61.3822 18.8339 60.2854 19.4196 59.1093 19.7885L66.7646 31.1479H60.344L52.9404 20.2202H49.3525V31.1479H43.777ZM49.3582 15.4295H55.4132C56.1676 15.4387 56.9129 15.2635 57.5842 14.9192C58.2149 14.6015 58.7567 14.1318 59.1605 13.5524C59.5534 12.9887 59.7612 12.3167 59.7551 11.6297C59.7632 10.9364 59.5554 10.2577 59.1605 9.68767C58.7575 9.10584 58.2157 8.63372 57.5842 8.31403C56.9129 7.96968 56.1676 7.79451 55.4132 7.80375H49.3582V15.4295Z" fill="#FCF8F5"/>
<path d="M78.4862 31.6576C76.3851 31.6576 74.4697 31.1933 72.7399 30.2646C71.0679 29.3881 69.6451 28.1024 68.6041 26.5275C67.5835 24.9905 67.0463 23.1831 67.0619 21.3381C67.0516 19.9442 67.3561 18.5659 67.9526 17.306C68.547 16.0568 69.3818 14.937 70.4094 14.0108C71.4753 13.0483 72.7114 12.2931 74.0543 11.7841C75.469 11.2422 76.9725 10.9691 78.4874 10.9788C80.59 10.9788 82.5058 11.4431 84.2349 12.3718C85.9082 13.251 87.3312 14.5403 88.3707 16.1191C89.3925 17.6666 89.9295 19.4838 89.9129 21.3381C89.922 22.7224 89.6174 24.0908 89.0221 25.3406C88.4254 26.5858 87.5908 27.7021 86.5653 28.6267C85.5021 29.5871 84.2702 30.3421 82.9318 30.8535C81.5133 31.3972 80.0053 31.67 78.4862 31.6576ZM78.4862 26.8738C79.5344 26.8901 80.5679 26.6259 81.4796 26.1083C82.3375 25.624 83.0573 24.9285 83.5708 24.0877C84.0782 23.2621 84.3434 22.3106 84.3362 21.3416C84.3451 20.3534 84.0717 19.3833 83.548 18.5453C83.0226 17.7022 82.2912 17.0068 81.4226 16.5246C80.5269 16.02 79.5143 15.7596 78.4862 15.7695C77.4455 15.755 76.4198 16.0192 75.5157 16.5349C74.6528 17.0247 73.9295 17.7269 73.4142 18.5749C72.9015 19.4063 72.6324 20.3648 72.6374 21.3416C72.6247 22.3343 72.9018 23.3092 73.4347 24.147C73.9651 24.9819 74.7003 25.6673 75.5703 26.138C76.4634 26.628 77.4676 26.8802 78.4862 26.8703V26.8738Z" fill="#FCF8F5"/>
<path d="M99.2801 31.501C98.1126 31.4395 96.9574 31.2321 95.8415 30.8836C94.7946 30.5651 93.8038 30.0851 92.905 29.461C92.0911 28.9018 91.4184 28.1609 90.9402 27.2969L95.6478 25.5701C95.8965 25.8954 96.1976 26.1772 96.5385 26.4039C96.9913 26.7197 97.4879 26.9676 98.0124 27.1397C98.62 27.3423 99.2571 27.442 99.8975 27.4347C100.456 27.4368 101.013 27.3675 101.555 27.2285C102.025 27.1187 102.463 26.9003 102.834 26.5907C102.994 26.4525 103.121 26.2804 103.206 26.0869C103.291 25.8934 103.331 25.6834 103.325 25.4722C103.333 25.25 103.284 25.0296 103.182 24.832C103.08 24.6345 102.929 24.4666 102.743 24.3446C102.297 24.0523 101.801 23.8459 101.28 23.7363C100.694 23.5981 100.126 23.4705 99.5774 23.3536C98.1932 23.1233 96.8399 22.7351 95.5442 22.1964C94.3027 21.6739 93.3048 20.997 92.5508 20.1655C91.7968 19.334 91.4198 18.3302 91.4198 17.1539C91.4198 15.8585 91.8196 14.7404 92.6192 13.7995C93.4188 12.8587 94.4625 12.1328 95.7504 11.6217C97.079 11.1037 98.4943 10.8439 99.9203 10.8563C101.634 10.8365 103.333 11.1671 104.914 11.8279C106.429 12.4749 107.628 13.3861 108.512 14.5615L104.102 16.7986C103.86 16.4562 103.558 16.1606 103.211 15.9261C102.809 15.6465 102.371 15.422 101.909 15.2586C101.416 15.0813 100.9 14.9788 100.377 14.9545C99.7482 14.9234 99.1182 14.9763 98.5033 15.1117C98.0003 15.2123 97.5321 15.4419 97.1445 15.778C96.9735 15.9374 96.839 16.1319 96.7501 16.3482C96.6613 16.5644 96.6202 16.7973 96.6296 17.0309C96.6224 17.2623 96.6833 17.4907 96.8048 17.6877C96.9263 17.8848 97.1031 18.0418 97.3131 18.1392C97.8358 18.404 98.3939 18.5924 98.9703 18.6984C99.6173 18.8298 100.238 18.9737 100.833 19.1301C102.128 19.4928 103.393 19.9586 104.614 20.5231C105.794 21.0722 106.743 21.7457 107.462 22.5438C107.813 22.9303 108.084 23.3823 108.26 23.8739C108.436 24.3655 108.513 24.8869 108.487 25.4084C108.498 26.6475 108.023 27.8416 107.162 28.7332C106.278 29.6816 105.139 30.403 103.745 30.8973C102.314 31.4048 100.794 31.6104 99.2801 31.501Z" fill="#FCF8F5"/>
<path d="M120.966 31.6576C118.863 31.6576 116.947 31.1933 115.218 30.2646C113.547 29.3878 112.124 28.1022 111.083 26.5275C110.062 24.9905 109.525 23.1831 109.54 21.3381C109.531 19.9441 109.835 18.5658 110.432 17.306C111.026 16.0568 111.861 14.9371 112.888 14.0108C113.954 13.0486 115.19 12.2934 116.533 11.7841C117.948 11.2421 119.451 10.969 120.966 10.9788C123.068 10.9788 124.983 11.4431 126.712 12.3718C128.386 13.2506 129.809 14.54 130.848 16.1192C131.87 17.6665 132.408 19.4837 132.391 21.3381C132.401 22.7226 132.096 24.0911 131.5 25.3406C130.903 26.5858 130.068 27.7021 129.043 28.6267C127.98 29.5871 126.748 30.3421 125.41 30.8535C123.992 31.397 122.485 31.6697 120.966 31.6576ZM120.966 26.8738C122.014 26.8901 123.048 26.6259 123.959 26.1083C124.817 25.6236 125.536 24.9282 126.049 24.0877C126.557 23.2621 126.822 22.3106 126.815 21.3416C126.824 20.3534 126.551 19.3831 126.027 18.5453C125.502 17.7022 124.77 17.0068 123.902 16.5246C123.006 16.0201 121.994 15.7597 120.966 15.7695C119.925 15.7548 118.899 16.0191 117.995 16.5349C117.132 17.025 116.409 17.7271 115.893 18.5749C115.38 19.4063 115.111 20.3648 115.116 21.3416C115.104 22.3343 115.381 23.309 115.913 24.147C116.444 24.9818 117.18 25.6671 118.05 26.138C118.943 26.6282 119.947 26.8804 120.966 26.8703V26.8738Z" fill="#FCF8F5"/>
<path d="M137.143 8.99861C136.321 8.99861 135.628 8.76625 135.065 8.30154C134.797 8.09472 134.581 7.82844 134.434 7.52379C134.287 7.21914 134.214 6.88448 134.218 6.54631C134.216 6.20978 134.291 5.87715 134.437 5.5743C134.584 5.27146 134.799 5.00655 135.065 4.80018C135.642 4.32383 136.372 4.07294 137.121 4.094C137.929 4.094 138.612 4.32939 139.171 4.80018C139.434 5.00841 139.645 5.274 139.79 5.57664C139.935 5.87928 140.008 6.21095 140.005 6.54631C140.01 6.88221 139.939 7.215 139.797 7.51923C139.654 7.82345 139.444 8.09105 139.182 8.30154C138.63 8.76625 137.951 8.99861 137.143 8.99861ZM134.311 11.5295H139.886V31.1479H134.311V11.5295Z" fill="#FCF8F5"/>
</g>
<defs>
<clipPath id="clip0_555_89443">
<rect width="140" height="33.8698" fill="white"/>
</clipPath>
</defs>
</svg>
